USFL
nRows=234
nColumns=2
inDegrees=yes
endheader
time	tib_ant_r	
3.42641	 36.303812	
3.45968	 36.303189	
3.49294	 36.290453	
3.52621	 36.296313	
3.55948	 36.298404	
3.59274	 36.291257	
3.62601	 36.302113	
3.65927	 36.291024	
3.69254	 36.308614	
3.72581	 36.298503	
3.75907	 36.304482	
3.79234	 36.314502	
3.8256	 36.312217	
3.85887	 36.306182	
3.89214	 36.290440	
3.9254	 36.301140	
3.95867	 36.315797	
3.99194	 36.316732	
4.0252	 36.314097	
4.05847	 36.317152	
4.09173	 36.330216	
4.125	 36.346489	
4.15827	 36.343641	
4.19153	 36.332981	
4.2248	 36.355032	
4.25806	 36.360226	
4.29133	 36.359436	
4.3246	 36.358082	
4.35786	 36.363140	
4.39113	 36.368208	
4.4244	 36.346582	
4.45766	 36.335225	
4.49093	 36.342437	
4.52419	 36.343479	
4.55746	 36.346265	
4.59073	 36.337918	
4.62399	 36.346738	
4.65726	 36.341503	
4.69052	 36.349601	
4.72379	 36.364151	
4.75706	 36.389185	
4.79032	 36.378860	
4.82359	 36.420459	
4.85685	 36.423612	
4.89012	 36.423695	
4.92339	 36.453463	
4.95665	 36.449407	
4.98992	 36.460868	
5.02319	 36.448814	
5.05645	 36.458169	
5.08972	 36.467724	
5.12298	 36.451709	
5.15625	 36.461429	
5.18952	 36.454420	
5.22278	 36.438231	
5.25605	 36.435972	
5.28931	 36.454222	
5.32258	 36.463840	
5.35585	 36.440615	
5.38911	 36.422741	
5.42238	 36.407089	
5.45565	 36.417114	
5.48891	 36.421449	
5.52218	 36.240758	
5.55544	 35.844730	
5.58871	 35.579166	
5.62198	 35.500226	
5.65524	 35.507672	
5.68851	 35.349690	
5.72177	 35.190729	
5.75504	 35.234754	
5.78831	 34.715938	
5.82157	 34.831779	
5.85484	 34.810765	
5.8881	 34.915079	
5.92137	 34.607742	
5.95464	 34.605776	
5.9879	 34.623853	
6.02117	 34.465733	
6.05444	 34.383169	
6.0877	 34.342367	
6.12097	 34.353763	
6.15423	 34.296249	
6.1875	 34.262054	
6.22077	 34.211056	
6.25403	 34.312364	
6.2873	 34.227065	
6.32056	 34.295058	
6.35383	 34.237623	
6.3871	 34.204869	
6.42036	 34.241164	
6.45363	 34.215281	
6.4869	 34.179989	
6.52016	 34.236576	
6.55343	 34.124424	
6.58669	 34.115378	
6.61996	 34.004150	
6.65323	 34.082224	
6.68649	 34.087190	
6.71976	 34.100732	
6.75302	 34.209248	
6.78629	 34.193786	
6.81956	 34.182630	
6.85282	 34.131044	
6.88609	 34.091927	
6.91935	 33.966233	
6.95262	 33.929051	
6.98589	 33.929111	
7.01915	 33.811284	
7.05242	 33.799311	
7.08569	 33.825628	
7.11895	 33.827384	
7.15222	 33.831137	
7.18548	 33.776295	
7.21875	 33.712516	
7.25202	 33.896153	
7.28528	 33.930995	
7.31855	 34.001728	
7.35181	 33.952156	
7.38508	 34.085818	
7.41835	 34.061488	
7.45161	 34.193500	
7.48488	 34.428708	
7.51815	 34.400311	
7.55141	 34.251812	
7.58468	 34.396718	
7.61794	 34.509162	
7.65121	 34.499592	
7.68448	 34.587091	
7.71774	 34.542136	
7.75101	 34.595454	
7.78427	 34.677341	
7.81754	 34.679135	
7.85081	 34.832962	
7.88407	 35.022642	
7.91734	 35.035691	
7.9506	 35.066833	
7.98387	 35.137423	
8.01714	 35.128335	
8.0504	 35.039300	
8.08367	 35.008631	
8.11694	 35.036228	
8.1502	 35.150491	
8.18347	 35.079042	
8.21673	 35.047896	
8.25	 34.944899	
8.28327	 35.095178	
8.31653	 35.077886	
8.3498	 34.999431	
8.38306	 35.101294	
8.41633	 35.202651	
8.4496	 35.172746	
8.48286	 35.111432	
8.51613	 35.277993	
8.5494	 35.139970	
8.58266	 35.110638	
8.61593	 35.176917	
8.64919	 35.077109	
8.68246	 35.135652	
8.71573	 35.180447	
8.74899	 35.248377	
8.78226	 35.209855	
8.81552	 35.311793	
8.84879	 35.265650	
8.88206	 35.244559	
8.91532	 35.322902	
8.94859	 35.417524	
8.98185	 35.529768	
9.01512	 35.469032	
9.04839	 35.364525	
9.08165	 35.504187	
9.11492	 35.496660	
9.14819	 35.658335	
9.18145	 35.831010	
9.21472	 35.873419	
9.24798	 35.886320	
9.28125	 36.036446	
9.31452	 36.179558	
9.34778	 36.161315	
9.38105	 36.055332	
9.41431	 36.241820	
9.44758	 36.340905	
9.48085	 36.134586	
9.51411	 36.036620	
9.54738	 36.578269	
9.58065	 36.249234	
9.61391	 36.040795	
9.64718	 36.151309	
9.68044	 36.431496	
9.71371	 36.432087	
9.74698	 36.367330	
9.78024	 36.357753	
9.81351	 36.348652	
9.84677	 36.443125	
9.88004	 36.421491	
9.91331	 36.373244	
9.94657	 36.257229	
9.97984	 36.511287	
10.0131	 36.464913	
10.0464	 36.755372	
10.0796	 37.014538	
10.1129	 37.418374	
10.1462	 37.735095	
10.1794	 37.944258	
10.2127	 38.150853	
10.246	 38.528719	
10.2792	 38.741930	
10.3125	 38.673163	
10.3458	 38.923380	
10.379	 39.164675	
10.4123	 39.365562	
10.4456	 39.648530	
10.4788	 39.706993	
10.5121	 39.769036	
10.5454	 39.835315	
10.5786	 39.969915	
10.6119	 40.046675	
10.6452	 40.042187	
10.6784	 39.980247	
10.7117	 39.911008	
10.745	 39.876307	
10.7782	 39.934796	
10.8115	 39.986682	
10.8448	 40.094436	
10.878	 40.224093	
10.9113	 40.340852	
10.9446	 40.427026	
10.9778	 40.586042	
11.0111	 40.653890	
11.0444	 40.683915	
11.0776	 40.765826	
11.1109	 40.869470	
11.1442	 40.951882	
11.1774	 40.983850	
